{
  "accessors": [
    {
      "bufferView": 2,
      "componentType": 5126,
      "count": 9826,
      "max": [
        425.73587036132812,
        369.74771118164062,
        259.18362426757812
      ],
      "min": [
        -350.61026000976562,
        -316.12265014648438,
        -249.56449890136719
      ],
      "type": "VEC3"
    },
    {
      "bufferView": 2,
      "byteOffset": 117912,
      "componentType": 5126,
      "count": 9826,
      "max": [
        0,
        -0,
        1
      ],
      "min": [
        0,
        -0,
        1
      ],
      "type": "VEC3"
    },
    {
      "bufferView": 3,
      "componentType": 5126,
      "count": 9826,
      "max": [
        1,
        0,
        0,
        1
      ],
      "min": [
        -1,
        0,
        0,
        1
      ],
      "type": "VEC4"
    },
    {
      "bufferView": 1,
      "componentType": 5126,
      "count": 9826,
      "max": [
        1,
        1
      ],
      "min": [
        0,
        0
      ],
      "type": "VEC2"
    },
    {
      "bufferView": 0,
      "componentType": 5125,
      "count": 25704,
      "max": [
        9825
      ],
      "min": [
        0
      ],
      "type": "SCALAR"
    },
    {
      "bufferView": 2,
      "byteOffset": 235824,
      "componentType": 5126,
      "count": 9826,
      "max": [
        410.59097290039062,
        359.44119262695312,
        39.19781494140625
      ],
      "min": [
        -416.805419921875,
        -353.15170288085938,
        -253.84086608886719
      ],
      "type": "VEC3"
    },
    {
      "bufferView": 2,
      "byteOffset": 353736,
      "componentType": 5126,
      "count": 9826,
      "max": [
        0,
        -0,
        1
      ],
      "min": [
        0,
        -0,
        1
      ],
      "type": "VEC3"
    },
    {
      "bufferView": 3,
      "byteOffset": 157216,
      "componentType": 5126,
      "count": 9826,
      "max": [
        1,
        0,
        0,
        1
      ],
      "min": [
        -1,
        0,
        0,
        1
      ],
      "type": "VEC4"
    },
    {
      "bufferView": 1,
      "byteOffset": 78608,
      "componentType": 5126,
      "count": 9826,
      "max": [
        1,
        1
      ],
      "min": [
        0,
        0
      ],
      "type": "VEC2"
    },
    {
      "bufferView": 0,
      "byteOffset": 102816,
      "componentType": 5125,
      "count": 25704,
      "max": [
        9825
      ],
      "min": [
        0
      ],
      "type": "SCALAR"
    },
    {
      "bufferView": 2,
      "byteOffset": 471648,
      "componentType": 5126,
      "count": 9826,
      "max": [
        429.11578369140625,
        376.779541015625,
        259.36099243164062
      ],
      "min": [
        -418.534423828125,
        -374.86569213867188,
        -236.75407409667969
      ],
      "type": "VEC3"
    },
    {
      "bufferView": 2,
      "byteOffset": 589560,
      "componentType": 5126,
      "count": 9826,
      "max": [
        0,
        -0,
        1
      ],
      "min": [
        0,
        -0,
        1
      ],
      "type": "VEC3"
    },
    {
      "bufferView": 3,
      "byteOffset": 314432,
      "componentType": 5126,
      "count": 9826,
      "max": [
        1,
        0,
        0,
        1
      ],
      "min": [
        -1,
        0,
        0,
        1
      ],
      "type": "VEC4"
    },
    {
      "bufferView": 1,
      "byteOffset": 157216,
      "componentType": 5126,
      "count": 9826,
      "max": [
        1,
        1
      ],
      "min": [
        0,
        0
      ],
      "type": "VEC2"
    },
    {
      "bufferView": 0,
      "byteOffset": 205632,
      "componentType": 5125,
      "count": 25704,
      "max": [
        9825
      ],
      "min": [
        0
      ],
      "type": "SCALAR"
    },
    {
      "bufferView": 2,
      "byteOffset": 707472,
      "componentType": 5126,
      "count": 9826,
      "max": [
        427.54190063476562,
        373.60195922851562,
        237.37796020507812
      ],
      "min": [
        -389.07107543945312,
        -371.8310546875,
        -268.59027099609375
      ],
      "type": "VEC3"
    },
    {
      "bufferView": 2,
      "byteOffset": 825384,
      "componentType": 5126,
      "count": 9826,
      "max": [
        0,
        -0,
        1
      ],
      "min": [
        0,
        -0,
        1
      ],
      "type": "VEC3"
    },
    {
      "bufferView": 3,
      "byteOffset": 471648,
      "componentType": 5126,
      "count": 9826,
      "max": [
        1,
        0,
        0,
        1
      ],
      "min": [
        -1,
        0,
        0,
        1
      ],
      "type": "VEC4"
    },
    {
      "bufferView": 1,
      "byteOffset": 235824,
      "componentType": 5126,
      "count": 9826,
      "max": [
        1,
        1
      ],
      "min": [
        0,
        0
      ],
      "type": "VEC2"
    },
    {
      "bufferView": 0,
      "byteOffset": 308448,
      "componentType": 5125,
      "count": 25704,
      "max": [
        9825
      ],
      "min": [
        0
      ],
      "type": "SCALAR"
    },
    {
      "bufferView": 2,
      "byteOffset": 943296,
      "componentType": 5126,
      "count": 9826,
      "max": [
        419.17633056640625,
        365.537353515625,
        231.11183166503906
      ],
      "min": [
        -396.41583251953125,
        -372.069580078125,
        -256.5556640625
      ],
      "type": "VEC3"
    },
    {
      "bufferView": 2,
      "byteOffset": 1061208,
      "componentType": 5126,
      "count": 9826,
      "max": [
        0,
        -0,
        1
      ],
      "min": [
        0,
        -0,
        1
      ],
      "type": "VEC3"
    },
    {
      "bufferView": 3,
      "byteOffset": 628864,
      "componentType": 5126,
      "count": 9826,
      "max": [
        1,
        0,
        0,
        1
      ],
      "min": [
        -1,
        0,
        0,
        1
      ],
      "type": "VEC4"
    },
    {
      "bufferView": 1,
      "byteOffset": 314432,
      "componentType": 5126,
      "count": 9826,
      "max": [
        1,
        1
      ],
      "min": [
        0,
        0
      ],
      "type": "VEC2"
    },
    {
      "bufferView": 0,
      "byteOffset": 411264,
      "componentType": 5125,
      "count": 25704,
      "max": [
        9825
      ],
      "min": [
        0
      ],
      "type": "SCALAR"
    },
    {
      "bufferView": 2,
      "byteOffset": 1179120,
      "componentType": 5126,
      "count": 2890,
      "max": [
        347.43106079101562,
        321.37673950195312,
        132.61189270019531
      ],
      "min": [
        -421.62994384765625,
        -297.87142944335938,
        -218.93653869628906
      ],
      "type": "VEC3"
    },
    {
      "bufferView": 2,
      "byteOffset": 1213800,
      "componentType": 5126,
      "count": 2890,
      "max": [
        0,
        -0,
        1
      ],
      "min": [
        0,
        -0,
        1
      ],
      "type": "VEC3"
    },
    {
      "bufferView": 3,
      "byteOffset": 786080,
      "componentType": 5126,
      "count": 2890,
      "max": [
        1,
        0,
        0,
        1
      ],
      "min": [
        -1,
        0,
        0,
        1
      ],
      "type": "VEC4"
    },
    {
      "bufferView": 1,
      "byteOffset": 393040,
      "componentType": 5126,
      "count": 2890,
      "max": [
        1,
        1
      ],
      "min": [
        0,
        0
      ],
      "type": "VEC2"
    },
    {
      "bufferView": 0,
      "byteOffset": 514080,
      "componentType": 5125,
      "count": 7560,
      "max": [
        2889
      ],
      "min": [
        0
      ],
      "type": "SCALAR"
    },
    {
      "bufferView": 2,
      "byteOffset": 1248480,
      "componentType": 5126,
      "count": 9720,
      "max": [
        426.81338500976562,
        316.4375,
        260.120361328125
      ],
      "min": [
        -315.6859130859375,
        -345.77853393554688,
        -251.57334899902344
      ],
      "type": "VEC3"
    },
    {
      "bufferView": 2,
      "byteOffset": 1365120,
      "componentType": 5126,
      "count": 9720,
      "max": [
        0,
        -0,
        1
      ],
      "min": [
        0,
        -0,
        1
      ],
      "type": "VEC3"
    },
    {
      "bufferView": 3,
      "byteOffset": 832320,
      "componentType": 5126,
      "count": 9720,
      "max": [
        1,
        0,
        0,
        1
      ],
      "min": [
        -1,
        0,
        0,
        1
      ],
      "type": "VEC4"
    },
    {
      "bufferView": 1,
      "byteOffset": 416160,
      "componentType": 5126,
      "count": 9720,
      "max": [
        1,
        1
      ],
      "min": [
        0,
        0
      ],
      "type": "VEC2"
    },
    {
      "bufferView": 0,
      "byteOffset": 544320,
      "componentType": 5125,
      "count": 23328,
      "max": [
        9719
      ],
      "min": [
        0
      ],
      "type": "SCALAR"
    },
    {
      "bufferView": 2,
      "byteOffset": 1481760,
      "componentType": 5126,
      "count": 9720,
      "max": [
        400.78143310546875,
        336.06964111328125,
        193.74723815917969
      ],
      "min": [
        -387.1611328125,
        -358.55337524414062,
        -257.53753662109375
      ],
      "type": "VEC3"
    },
    {
      "bufferView": 2,
      "byteOffset": 1598400,
      "componentType": 5126,
      "count": 9720,
      "max": [
        0,
        -0,
        1
      ],
      "min": [
        0,
        -0,
        1
      ],
      "type": "VEC3"
    },
    {
      "bufferView": 3,
      "byteOffset": 987840,
      "componentType": 5126,
      "count": 9720,
      "max": [
        1,
        0,
        0,
        1
      ],
      "min": [
        -1,
        0,
        0,
        1
      ],
      "type": "VEC4"
    },
    {
      "bufferView": 1,
      "byteOffset": 493920,
      "componentType": 5126,
      "count": 9720,
      "max": [
        1,
        1
      ],
      "min": [
        0,
        0
      ],
      "type": "VEC2"
    },
    {
      "bufferView": 0,
      "byteOffset": 637632,
      "componentType": 5125,
      "count": 23328,
      "max": [
        9719
      ],
      "min": [
        0
      ],
      "type": "SCALAR"
    },
    {
      "bufferView": 2,
      "byteOffset": 1715040,
      "componentType": 5126,
      "count": 9720,
      "max": [
        411.65594482421875,
        359.44119262695312,
        245.19346618652344
      ],
      "min": [
        -404.14169311523438,
        -353.15170288085938,
        -254.90583801269531
      ],
      "type": "VEC3"
    },
    {
      "bufferView": 2,
      "byteOffset": 1831680,
      "componentType": 5126,
      "count": 9720,
      "max": [
        0,
        -0,
        1
      ],
      "min": [
        0,
        -0,
        1
      ],
      "type": "VEC3"
    },
    {
      "bufferView": 3,
      "byteOffset": 1143360,
      "componentType": 5126,
      "count": 9720,
      "max": [
        1,
        0,
        0,
        1
      ],
      "min": [
        -1,
        0,
        0,
        1
      ],
      "type": "VEC4"
    },
    {
      "bufferView": 1,
      "byteOffset": 571680,
      "componentType": 5126,
      "count": 9720,
      "max": [
        1,
        1
      ],
      "min": [
        0,
        0
      ],
      "type": "VEC2"
    },
    {
      "bufferView": 0,
      "byteOffset": 730944,
      "componentType": 5125,
      "count": 23328,
      "max": [
        9719
      ],
      "min": [
        0
      ],
      "type": "SCALAR"
    },
    {
      "bufferView": 2,
      "byteOffset": 1948320,
      "componentType": 5126,
      "count": 9720,
      "max": [
        428.45553588867188,
        321.37673950195312,
        171.89894104003906
      ],
      "min": [
        -422.5462646484375,
        -371.8310546875,
        -232.16062927246094
      ],
      "type": "VEC3"
    },
    {
      "bufferView": 2,
      "byteOffset": 2064960,
      "componentType": 5126,
      "count": 9720,
      "max": [
        0,
        -0,
        1
      ],
      "min": [
        0,
        -0,
        1
      ],
      "type": "VEC3"
    },
    {
      "bufferView": 3,
      "byteOffset": 1298880,
      "componentType": 5126,
      "count": 9720,
      "max": [
        1,
        0,
        0,
        1
      ],
      "min": [
        -1,
        0,
        0,
        1
      ],
      "type": "VEC4"
    },
    {
      "bufferView": 1,
      "byteOffset": 649440,
      "componentType": 5126,
      "count": 9720,
      "max": [
        1,
        1
      ],
      "min": [
        0,
        0
      ],
      "type": "VEC2"
    },
    {
      "bufferView": 0,
      "byteOffset": 824256,
      "componentType": 5125,
      "count": 23328,
      "max": [
        9719
      ],
      "min": [
        0
      ],
      "type": "SCALAR"
    },
    {
      "bufferView": 2,
      "byteOffset": 2181600,
      "componentType": 5126,
      "count": 9720,
      "max": [
        420.16567993164062,
        365.537353515625,
        155.76834106445312
      ],
      "min": [
        -389.98654174804688,
        -374.86569213867188,
        -269.51974487304688
      ],
      "type": "VEC3"
    },
    {
      "bufferView": 2,
      "byteOffset": 2298240,
      "componentType": 5126,
      "count": 9720,
      "max": [
        0,
        -0,
        1
      ],
      "min": [
        0,
        -0,
        1
      ],
      "type": "VEC3"
    },
    {
      "bufferView": 3,
      "byteOffset": 1454400,
      "componentType": 5126,
      "count": 9720,
      "max": [
        1,
        0,
        0,
        1
      ],
      "min": [
        -1,
        0,
        0,
        1
      ],
      "type": "VEC4"
    },
    {
      "bufferView": 1,
      "byteOffset": 727200,
      "componentType": 5126,
      "count": 9720,
      "max": [
        1,
        1
      ],
      "min": [
        0,
        0
      ],
      "type": "VEC2"
    },
    {
      "bufferView": 0,
      "byteOffset": 917568,
      "componentType": 5125,
      "count": 23328,
      "max": [
        9719
      ],
      "min": [
        0
      ],
      "type": "SCALAR"
    },
    {
      "bufferView": 2,
      "byteOffset": 2414880,
      "componentType": 5126,
      "count": 9720,
      "max": [
        379.51904296875,
        373.60195922851562,
        211.17668151855469
      ],
      "min": [
        -417.71588134765625,
        -369.6571044921875,
        -249.86128234863281
      ],
      "type": "VEC3"
    },
    {
      "bufferView": 2,
      "byteOffset": 2531520,
      "componentType": 5126,
      "count": 9720,
      "max": [
        0,
        -0,
        1
      ],
      "min": [
        0,
        -0,
        1
      ],
      "type": "VEC3"
    },
    {
      "bufferView": 3,
      "byteOffset": 1609920,
      "componentType": 5126,
      "count": 9720,
      "max": [
        1,
        0,
        0,
        1
      ],
      "min": [
        -1,
        0,
        0,
        1
      ],
      "type": "VEC4"
    },
    {
      "bufferView": 1,
      "byteOffset": 804960,
      "componentType": 5126,
      "count": 9720,
      "max": [
        1,
        1
      ],
      "min": [
        0,
        0
      ],
      "type": "VEC2"
    },
    {
      "bufferView": 0,
      "byteOffset": 1010880,
      "componentType": 5125,
      "count": 23328,
      "max": [
        9719
      ],
      "min": [
        0
      ],
      "type": "SCALAR"
    },
    {
      "bufferView": 2,
      "byteOffset": 2648160,
      "componentType": 5126,
      "count": 6480,
      "max": [
        430.08621215820312,
        376.779541015625,
        260.27178955078125
      ],
      "min": [
        -419.59970092773438,
        -372.069580078125,
        -250.64288330078125
      ],
      "type": "VEC3"
    },
    {
      "bufferView": 2,
      "byteOffset": 2725920,
      "componentType": 5126,
      "count": 6480,
      "max": [
        0,
        -0,
        1
      ],
      "min": [
        0,
        -0,
        1
      ],
      "type": "VEC3"
    },
    {
      "bufferView": 3,
      "byteOffset": 1765440,
      "componentType": 5126,
      "count": 6480,
      "max": [
        1,
        0,
        0,
        1
      ],
      "min": [
        -1,
        0,
        0,
        1
      ],
      "type": "VEC4"
    },
    {
      "bufferView": 1,
      "byteOffset": 882720,
      "componentType": 5126,
      "count": 6480,
      "max": [
        1,
        1
      ],
      "min": [
        0,
        0
      ],
      "type": "VEC2"
    },
    {
      "bufferView": 0,
      "byteOffset": 1104192,
      "componentType": 5125,
      "count": 15552,
      "max": [
        6479
      ],
      "min": [
        0
      ],
      "type": "SCALAR"
    }
  ],
  "asset": {
    "extras": {
      "author": "willkings (https://sketchfab.com/willkings)",
      "license": "CC-BY-4.0 (http://creativecommons.org/licenses/by/4.0/)",
      "source": "https://sketchfab.com/3d-models/blade-bubbles-01-73d84ed858c64b889d69b6a432cb410a",
      "title": "Blade Bubbles 01"
    },
    "generator": "Sketchfab-6.9.0",
    "version": "2.0"
  },
  "bufferViews": [
    {
      "buffer": 0,
      "byteLength": 1166400,
      "byteOffset": 0,
      "name": "floatBufferViews",
      "target": 34963
    },
    {
      "buffer": 0,
      "byteLength": 934560,
      "byteOffset": 1166400,
      "byteStride": 8,
      "name": "floatBufferViews",
      "target": 34962
    },
    {
      "buffer": 0,
      "byteLength": 2803680,
      "byteOffset": 2100960,
      "byteStride": 12,
      "name": "floatBufferViews",
      "target": 34962
    },
    {
      "buffer": 0,
      "byteLength": 1869120,
      "byteOffset": 4904640,
      "byteStride": 16,
      "name": "floatBufferViews",
      "target": 34962
    }
  ],
  "buffers": [
    {
      "byteLength": 6773760,
      "uri": "scene.bin"
    }
  ],
  "extensionsRequired": [
    "KHR_materials_pbrSpecularGlossiness"
  ],
  "extensionsUsed": [
    "KHR_materials_pbrSpecularGlossiness"
  ],
  "materials": [
    {
      "doubleSided": true,
      "emissiveFactor": [
        0,
        0,
        0
      ],
      "extensions": {
        "KHR_materials_pbrSpecularGlossiness": {
          "diffuseFactor": [
            0.73333300000000001,
            0.80392200000000003,
            0.58823499999999995,
            1
          ],
          "glossinessFactor": 0,
          "specularFactor": [
            0,
            0,
            0
          ]
        }
      },
      "name": "Bubble_01"
    },
    {
      "doubleSided": true,
      "emissiveFactor": [
        0,
        0,
        0
      ],
      "extensions": {
        "KHR_materials_pbrSpecularGlossiness": {
          "diffuseFactor": [
            0,
            0,
            0,
            1
          ],
          "glossinessFactor": 0,
          "specularFactor": [
            0,
            0,
            0
          ]
        }
      },
      "name": "material"
    }
  ],
  "meshes": [
    {
      "primitives": [
        {
          "attributes": {
            "NORMAL": 1,
            "POSITION": 0,
            "TANGENT": 2,
            "TEXCOORD_0": 3
          },
          "indices": 4,
          "material": 0,
          "mode": 4
        }
      ]
    },
    {
      "primitives": [
        {
          "attributes": {
            "NORMAL": 6,
            "POSITION": 5,
            "TANGENT": 7,
            "TEXCOORD_0": 8
          },
          "indices": 9,
          "material": 0,
          "mode": 4
        }
      ]
    },
    {
      "primitives": [
        {
          "attributes": {
            "NORMAL": 11,
            "POSITION": 10,
            "TANGENT": 12,
            "TEXCOORD_0": 13
          },
          "indices": 14,
          "material": 0,
          "mode": 4
        }
      ]
    },
    {
      "primitives": [
        {
          "attributes": {
            "NORMAL": 16,
            "POSITION": 15,
            "TANGENT": 17,
            "TEXCOORD_0": 18
          },
          "indices": 19,
          "material": 0,
          "mode": 4
        }
      ]
    },
    {
      "primitives": [
        {
          "attributes": {
            "NORMAL": 21,
            "POSITION": 20,
            "TANGENT": 22,
            "TEXCOORD_0": 23
          },
          "indices": 24,
          "material": 0,
          "mode": 4
        }
      ]
    },
    {
      "primitives": [
        {
          "attributes": {
            "NORMAL": 26,
            "POSITION": 25,
            "TANGENT": 27,
            "TEXCOORD_0": 28
          },
          "indices": 29,
          "material": 0,
          "mode": 4
        }
      ]
    },
    {
      "primitives": [
        {
          "attributes": {
            "NORMAL": 31,
            "POSITION": 30,
            "TANGENT": 32,
            "TEXCOORD_0": 33
          },
          "indices": 34,
          "material": 1,
          "mode": 4
        }
      ]
    },
    {
      "primitives": [
        {
          "attributes": {
            "NORMAL": 36,
            "POSITION": 35,
            "TANGENT": 37,
            "TEXCOORD_0": 38
          },
          "indices": 39,
          "material": 1,
          "mode": 4
        }
      ]
    },
    {
      "primitives": [
        {
          "attributes": {
            "NORMAL": 41,
            "POSITION": 40,
            "TANGENT": 42,
            "TEXCOORD_0": 43
          },
          "indices": 44,
          "material": 1,
          "mode": 4
        }
      ]
    },
    {
      "primitives": [
        {
          "attributes": {
            "NORMAL": 46,
            "POSITION": 45,
            "TANGENT": 47,
            "TEXCOORD_0": 48
          },
          "indices": 49,
          "material": 1,
          "mode": 4
        }
      ]
    },
    {
      "primitives": [
        {
          "attributes": {
            "NORMAL": 51,
            "POSITION": 50,
            "TANGENT": 52,
            "TEXCOORD_0": 53
          },
          "indices": 54,
          "material": 1,
          "mode": 4
        }
      ]
    },
    {
      "primitives": [
        {
          "attributes": {
            "NORMAL": 56,
            "POSITION": 55,
            "TANGENT": 57,
            "TEXCOORD_0": 58
          },
          "indices": 59,
          "material": 1,
          "mode": 4
        }
      ]
    },
    {
      "primitives": [
        {
          "attributes": {
            "NORMAL": 61,
            "POSITION": 60,
            "TANGENT": 62,
            "TEXCOORD_0": 63
          },
          "indices": 64,
          "material": 1,
          "mode": 4
        }
      ]
    }
  ],
  "nodes": [
    {
      "children": [
        1
      ],
      "name": "RootNode (gltf orientation matrix)",
      "rotation": [
        -0.70710678118654746,
        -0,
        -0,
        0.70710678118654757
      ]
    },
    {
      "children": [
        2
      ],
      "name": "RootNode (model correction matrix)"
    },
    {
      "children": [
        3,
        4,
        5,
        6,
        7,
        8,
        9,
        10,
        11,
        12,
        13,
        14,
        15
      ],
      "name": "Blade_Bubbles_01.obj.cleaner.materialmerger.gles"
    },
    {
      "mesh": 0,
      "name": ""
    },
    {
      "mesh": 1,
      "name": ""
    },
    {
      "mesh": 2,
      "name": ""
    },
    {
      "mesh": 3,
      "name": ""
    },
    {
      "mesh": 4,
      "name": ""
    },
    {
      "mesh": 5,
      "name": ""
    },
    {
      "mesh": 6,
      "name": ""
    },
    {
      "mesh": 7,
      "name": ""
    },
    {
      "mesh": 8,
      "name": ""
    },
    {
      "mesh": 9,
      "name": ""
    },
    {
      "mesh": 10,
      "name": ""
    },
    {
      "mesh": 11,
      "name": ""
    },
    {
      "mesh": 12,
      "name": ""
    }
  ],
  "scene": 0,
  "scenes": [
    {
      "name": "OSG_Scene",
      "nodes": [
        0
      ]
    }
  ]
}

